<svg width="105" height="24" viewBox="0 0 105 24" fill="none" xmlns="http://www.w3.org/2000/svg">
<path d="M13.5547 11.2578V11.4434C13.5417 11.9902 13.4831 12.5566 13.3789 13.1426C13.2812 13.7285 13.1413 14.3145 12.959 14.9004C12.7767 15.4863 12.5586 16.0658 12.3047 16.6387C12.0508 17.2116 11.7643 17.7585 11.4453 18.2793C11.1328 18.8066 10.7943 19.2982 10.4297 19.7539C10.0651 20.2161 9.68099 20.623 9.27734 20.9746L7.82227 20.1348C8.05013 19.7507 8.25521 19.3307 8.4375 18.875C8.6263 18.4258 8.79557 17.9538 8.94531 17.459C9.09505 16.9642 9.222 16.4564 9.32617 15.9355C9.43685 15.4147 9.528 14.8971 9.59961 14.3828C9.67122 13.8685 9.72331 13.3639 9.75586 12.8691C9.79492 12.3678 9.81445 11.8926 9.81445 11.4434C9.81445 11.0918 9.8112 10.6947 9.80469 10.252C9.80469 9.80273 9.77865 9.347 9.72656 8.88477C9.68099 8.42253 9.60286 7.97331 9.49219 7.53711C9.38151 7.0944 9.2155 6.70052 8.99414 6.35547C8.7793 6.01042 8.49935 5.73372 8.1543 5.52539C7.81576 5.31706 7.39258 5.21289 6.88477 5.21289C6.43555 5.21289 6.04818 5.29102 5.72266 5.44727C5.40365 5.59701 5.13021 5.80208 4.90234 6.0625C4.68099 6.31641 4.50195 6.61263 4.36523 6.95117C4.23503 7.28971 4.13086 7.64779 4.05273 8.02539C3.98112 8.39648 3.93229 8.77409 3.90625 9.1582C3.88672 9.53581 3.87695 9.89388 3.87695 10.2324V12.957H8.08594V14.5684H3.87695V17.9863H0V10.8379C0 9.81575 0.16276 8.86523 0.488281 7.98633C0.813802 7.10742 1.27279 6.3457 1.86523 5.70117C2.46419 5.05013 3.18034 4.54232 4.01367 4.17773C4.85352 3.80664 5.78776 3.62109 6.81641 3.62109C7.51302 3.62109 8.16406 3.72201 8.76953 3.92383C9.38151 4.11914 9.93815 4.39258 10.4395 4.74414C10.9408 5.08919 11.3867 5.5026 11.7773 5.98438C12.1745 6.45964 12.5033 6.98047 12.7637 7.54688C13.0306 8.11328 13.2324 8.71224 13.3691 9.34375C13.5059 9.97526 13.5677 10.6133 13.5547 11.2578Z" fill="#2A2A2A"/>
<path d="M28.8574 7.41016L27.1875 8.11328C27.0573 7.6901 26.8815 7.30273 26.6602 6.95117C26.4453 6.59961 26.1849 6.30013 25.8789 6.05273C25.5794 5.79883 25.2376 5.60352 24.8535 5.4668C24.4694 5.32357 24.0495 5.25195 23.5938 5.25195C23.1055 5.25195 22.6562 5.33333 22.2461 5.49609C21.8424 5.65885 21.4779 5.88021 21.1523 6.16016C20.8333 6.43359 20.5534 6.75586 20.3125 7.12695C20.0716 7.49805 19.8698 7.89518 19.707 8.31836C19.5508 8.73503 19.4303 9.16797 19.3457 9.61719C19.2676 10.0664 19.2285 10.5059 19.2285 10.9355C19.2285 11.6191 19.3066 12.2995 19.4629 12.9766C19.6257 13.6536 19.8796 14.2624 20.2246 14.8027C20.5762 15.3431 21.0286 15.7826 21.582 16.1211C22.1354 16.4531 22.806 16.6191 23.5938 16.6191C24.0234 16.6191 24.3587 16.5247 24.5996 16.3359C24.8405 16.1406 24.9609 15.8021 24.9609 15.3203V11.0039H28.8379V17.9863H27.7148L27.0312 16.8828C26.4062 17.3581 25.7161 17.7096 24.9609 17.9375C24.2122 18.1589 23.4473 18.2695 22.666 18.2695C21.9759 18.2695 21.3118 18.1849 20.6738 18.0156C20.0423 17.8464 19.4531 17.6055 18.9062 17.293C18.3594 16.9805 17.8613 16.6029 17.4121 16.1602C16.9694 15.7174 16.5885 15.2259 16.2695 14.6855C15.957 14.1452 15.7129 13.5592 15.5371 12.9277C15.3678 12.2897 15.2832 11.6257 15.2832 10.9355C15.2832 10.2454 15.3678 9.58464 15.5371 8.95312C15.7129 8.3151 15.957 7.72591 16.2695 7.18555C16.5885 6.63867 16.9694 6.14388 17.4121 5.70117C17.8613 5.25846 18.3594 4.88086 18.9062 4.56836C19.4531 4.25586 20.0423 4.01497 20.6738 3.8457C21.3118 3.67643 21.9759 3.5918 22.666 3.5918C23.3301 3.5918 23.9779 3.66992 24.6094 3.82617C25.2474 3.98242 25.8398 4.22005 26.3867 4.53906C26.9336 4.85156 27.4186 5.2487 27.8418 5.73047C28.2715 6.20573 28.61 6.76562 28.8574 7.41016Z" fill="#2A2A2A"/>
<path d="M37.9395 11.8438H31.377V10.0469H37.9395V11.8438Z" fill="#2A2A2A"/>
<path d="M53.7012 14.168C53.7012 14.5651 53.6361 14.9362 53.5059 15.2812C53.3757 15.6263 53.1966 15.9421 52.9688 16.2285C52.7409 16.5085 52.474 16.7591 52.168 16.9805C51.8685 17.2018 51.543 17.3874 51.1914 17.5371C50.8464 17.6868 50.4883 17.8008 50.1172 17.8789C49.7461 17.9505 49.3815 17.9863 49.0234 17.9863H40.752V3.92383H48.3105C48.6426 3.92383 48.9909 3.94987 49.3555 4.00195C49.7201 4.04753 50.0749 4.1224 50.4199 4.22656C50.7715 4.33073 51.1035 4.46745 51.416 4.63672C51.735 4.80599 52.0117 5.01432 52.2461 5.26172C52.487 5.5026 52.6758 5.78255 52.8125 6.10156C52.9557 6.42057 53.0273 6.78516 53.0273 7.19531C53.0273 7.58594 52.9492 7.94076 52.793 8.25977C52.6367 8.57878 52.4251 8.86523 52.1582 9.11914C51.8978 9.36654 51.5951 9.58789 51.25 9.7832C50.9115 9.972 50.5534 10.138 50.1758 10.2812C50.651 10.4115 51.1003 10.584 51.5234 10.7988C51.9531 11.0137 52.3275 11.2773 52.6465 11.5898C52.972 11.9023 53.2292 12.2734 53.418 12.7031C53.6068 13.1263 53.7012 13.6146 53.7012 14.168ZM49.0918 7.53711C49.0918 6.74284 48.8802 6.16341 48.457 5.79883C48.0404 5.43424 47.4447 5.25195 46.6699 5.25195H44.6289V9.8125H46.3379C46.6895 9.8125 47.0312 9.77018 47.3633 9.68555C47.6953 9.5944 47.9883 9.45768 48.2422 9.27539C48.5026 9.08659 48.7077 8.84896 48.8574 8.5625C49.0137 8.27604 49.0918 7.93424 49.0918 7.53711ZM49.7754 13.9238C49.7754 13.5397 49.7266 13.1816 49.6289 12.8496C49.5312 12.5111 49.3815 12.2214 49.1797 11.9805C48.9779 11.7331 48.724 11.541 48.418 11.4043C48.1185 11.2611 47.7637 11.1895 47.3535 11.1895H44.6289V16.6191H47.0117C47.4089 16.6191 47.7767 16.554 48.1152 16.4238C48.4538 16.2936 48.7467 16.1113 48.9941 15.877C49.2415 15.6426 49.4336 15.3594 49.5703 15.0273C49.707 14.6953 49.7754 14.3275 49.7754 13.9238Z" fill="#2A2A2A"/>
<path d="M59.1797 3.98242C59.1797 4.22982 59.1309 4.46419 59.0332 4.68555C58.9421 4.9069 58.8151 5.09896 58.6523 5.26172C58.4896 5.42448 58.2975 5.55469 58.0762 5.65234C57.8613 5.74349 57.6302 5.78906 57.3828 5.78906C57.1354 5.78906 56.901 5.74349 56.6797 5.65234C56.4583 5.55469 56.2663 5.42448 56.1035 5.26172C55.9408 5.09896 55.8105 4.9069 55.7129 4.68555C55.6217 4.46419 55.5762 4.22982 55.5762 3.98242C55.5762 3.73503 55.6217 3.50391 55.7129 3.28906C55.8105 3.06771 55.9408 2.87565 56.1035 2.71289C56.2663 2.55013 56.4583 2.42318 56.6797 2.33203C56.901 2.23438 57.1354 2.18555 57.3828 2.18555C57.6302 2.18555 57.8613 2.23438 58.0762 2.33203C58.2975 2.42318 58.4896 2.55013 58.6523 2.71289C58.8151 2.87565 58.9421 3.06771 59.0332 3.28906C59.1309 3.50391 59.1797 3.73503 59.1797 3.98242ZM59.0332 14.7246C59.0332 15.4993 58.9355 16.2871 58.7402 17.0879C58.5449 17.8822 58.2682 18.6504 57.9102 19.3926C57.5586 20.1413 57.1354 20.8411 56.6406 21.4922C56.1523 22.1497 55.612 22.7161 55.0195 23.1914L53.7305 22.4102C54.0625 21.9544 54.3522 21.4368 54.5996 20.8574C54.847 20.2845 55.0521 19.6888 55.2148 19.0703C55.3841 18.4518 55.5111 17.8301 55.5957 17.2051C55.6803 16.5736 55.7227 15.9746 55.7227 15.4082V6.70703H59.0332V14.7246Z" fill="#2A2A2A"/>
<path d="M71.4551 14.3828C71.4551 14.8776 71.3835 15.3171 71.2402 15.7012C71.097 16.0853 70.9017 16.4206 70.6543 16.707C70.4069 16.987 70.1139 17.2246 69.7754 17.4199C69.4369 17.6087 69.0723 17.7617 68.6816 17.8789C68.2975 17.9961 67.8939 18.0807 67.4707 18.1328C67.0475 18.1849 66.6276 18.2109 66.2109 18.2109C65.651 18.2109 65.1562 18.1751 64.7266 18.1035C64.2969 18.0319 63.8867 17.918 63.4961 17.7617C63.1055 17.599 62.7148 17.3906 62.3242 17.1367C61.9401 16.8828 61.5104 16.5736 61.0352 16.209L62.959 14.6367C63.1348 14.9688 63.3659 15.2715 63.6523 15.5449C63.9453 15.8118 64.248 16.043 64.5605 16.2383C64.873 16.4336 65.1758 16.5833 65.4688 16.6875C65.7617 16.7917 65.9994 16.8438 66.1816 16.8438C66.3314 16.8438 66.5006 16.8405 66.6895 16.834C66.8783 16.821 67.0703 16.8014 67.2656 16.7754C67.4609 16.7428 67.653 16.6973 67.8418 16.6387C68.0306 16.5801 68.1966 16.502 68.3398 16.4043C68.4896 16.3001 68.6068 16.1732 68.6914 16.0234C68.7826 15.8672 68.8281 15.6816 68.8281 15.4668C68.8281 15.2454 68.7695 15.0534 68.6523 14.8906C68.5417 14.7214 68.3952 14.5749 68.2129 14.4512C68.0306 14.3275 67.8223 14.2233 67.5879 14.1387C67.3535 14.054 67.1159 13.9792 66.875 13.9141C66.6406 13.849 66.4128 13.7936 66.1914 13.748C65.9701 13.696 65.778 13.6471 65.6152 13.6016C65.3158 13.5169 65 13.4323 64.668 13.3477C64.3359 13.2565 64.0072 13.1556 63.6816 13.0449C63.3561 12.9277 63.0436 12.791 62.7441 12.6348C62.4512 12.4785 62.1908 12.293 61.9629 12.0781C61.7415 11.8568 61.5625 11.5996 61.4258 11.3066C61.2956 11.0072 61.2305 10.6589 61.2305 10.2617C61.2305 9.53255 61.3737 8.92383 61.6602 8.43555C61.9531 7.94076 62.3372 7.54688 62.8125 7.25391C63.2878 6.95443 63.8281 6.74284 64.4336 6.61914C65.0391 6.49544 65.6543 6.43359 66.2793 6.43359C66.709 6.43359 67.1615 6.47917 67.6367 6.57031C68.112 6.65495 68.5742 6.78516 69.0234 6.96094C69.4727 7.13021 69.8926 7.33854 70.2832 7.58594C70.6738 7.83333 70.9994 8.11654 71.2598 8.43555L69.3359 10.0176C69.1927 9.62695 69.0039 9.29167 68.7695 9.01172C68.5417 8.73177 68.291 8.50391 68.0176 8.32812C67.7506 8.14583 67.474 8.01237 67.1875 7.92773C66.9076 7.8431 66.6471 7.80078 66.4062 7.80078C66.1719 7.80078 65.9082 7.81055 65.6152 7.83008C65.3223 7.84961 65.0456 7.90495 64.7852 7.99609C64.5312 8.08724 64.3131 8.22721 64.1309 8.41602C63.9551 8.59831 63.8672 8.85221 63.8672 9.17773C63.8672 9.41211 63.9193 9.61393 64.0234 9.7832C64.1341 9.94596 64.2773 10.0892 64.4531 10.2129C64.6289 10.3301 64.8275 10.431 65.0488 10.5156C65.2767 10.5938 65.5078 10.6654 65.7422 10.7305C65.9766 10.7891 66.2044 10.8411 66.4258 10.8867C66.6471 10.9323 66.8457 10.9811 67.0215 11.0332C67.321 11.1178 67.6367 11.2057 67.9688 11.2969C68.3073 11.3815 68.6393 11.4824 68.9648 11.5996C69.2904 11.7103 69.6029 11.8438 69.9023 12C70.2083 12.1497 70.4753 12.3353 70.7031 12.5566C70.931 12.778 71.1133 13.0384 71.25 13.3379C71.3867 13.6309 71.4551 13.9792 71.4551 14.3828Z" fill="#2A2A2A"/>
<path d="M85.459 12.3223C85.459 12.9082 85.3809 13.4583 85.2246 13.9727C85.0684 14.487 84.8503 14.9622 84.5703 15.3984C84.2969 15.8346 83.9648 16.2285 83.5742 16.5801C83.1836 16.9251 82.7539 17.2181 82.2852 17.459C81.8229 17.6999 81.3249 17.8854 80.791 18.0156C80.2637 18.1458 79.7201 18.2109 79.1602 18.2109C78.6003 18.2109 78.0566 18.1458 77.5293 18.0156C77.002 17.8854 76.5039 17.6999 76.0352 17.459C75.5729 17.2181 75.1465 16.9251 74.7559 16.5801C74.3652 16.2285 74.0299 15.8346 73.75 15.3984C73.4766 14.9622 73.2617 14.487 73.1055 13.9727C72.9492 13.4518 72.8711 12.9017 72.8711 12.3223C72.8711 11.7428 72.9492 11.196 73.1055 10.6816C73.2617 10.1608 73.4766 9.68229 73.75 9.24609C74.0299 8.8099 74.3652 8.41927 74.7559 8.07422C75.1465 7.72266 75.5729 7.42643 76.0352 7.18555C76.5039 6.94466 77.002 6.75911 77.5293 6.62891C78.0566 6.4987 78.6003 6.43359 79.1602 6.43359C79.7201 6.43359 80.2637 6.4987 80.791 6.62891C81.3249 6.75911 81.8229 6.94466 82.2852 7.18555C82.7539 7.42643 83.1836 7.72266 83.5742 8.07422C83.9648 8.41927 84.2969 8.8099 84.5703 9.24609C84.8503 9.68229 85.0684 10.1608 85.2246 10.6816C85.3809 11.196 85.459 11.7428 85.459 12.3223ZM82.0996 12.3223C82.0996 12.0098 82.0801 11.681 82.041 11.3359C82.0085 10.9844 81.9499 10.6426 81.8652 10.3105C81.7806 9.972 81.6634 9.64974 81.5137 9.34375C81.3704 9.03125 81.1914 8.76107 80.9766 8.5332C80.7617 8.29883 80.5046 8.11328 80.2051 7.97656C79.9056 7.83333 79.5573 7.76172 79.1602 7.76172C78.7826 7.76172 78.4473 7.83333 78.1543 7.97656C77.8613 8.11979 77.6042 8.31185 77.3828 8.55273C77.168 8.78711 76.9857 9.06055 76.8359 9.37305C76.6927 9.68555 76.5755 10.0111 76.4844 10.3496C76.3932 10.6816 76.3281 11.0202 76.2891 11.3652C76.25 11.7038 76.2305 12.0228 76.2305 12.3223C76.2305 12.6217 76.25 12.944 76.2891 13.2891C76.3281 13.6276 76.3932 13.9661 76.4844 14.3047C76.5755 14.6432 76.6927 14.9688 76.8359 15.2812C76.9857 15.5872 77.168 15.8607 77.3828 16.1016C77.6042 16.3359 77.8613 16.5247 78.1543 16.668C78.4473 16.8112 78.7826 16.8828 79.1602 16.8828C79.5508 16.8828 79.8958 16.8145 80.1953 16.6777C80.4948 16.5345 80.752 16.3457 80.9668 16.1113C81.1881 15.877 81.3704 15.6068 81.5137 15.3008C81.6569 14.9948 81.7708 14.6725 81.8555 14.334C81.9466 13.9954 82.0085 13.6536 82.041 13.3086C82.0801 12.9635 82.0996 12.6348 82.0996 12.3223Z" fill="#2A2A2A"/>
<path d="M97.793 2.06836L95.9277 5.1543C95.9082 4.9069 95.8626 4.6237 95.791 4.30469C95.7194 3.97917 95.599 3.67318 95.4297 3.38672C95.2669 3.10026 95.0391 2.85938 94.7461 2.66406C94.4596 2.46224 94.0918 2.36133 93.6426 2.36133C93.1803 2.36133 92.8092 2.45247 92.5293 2.63477C92.2494 2.81706 92.0345 3.09049 91.8848 3.45508C91.735 3.81966 91.6341 4.27214 91.582 4.8125C91.5299 5.35286 91.5039 5.98112 91.5039 6.69727H94.9219V8.00586H91.5039V17.9863H88.1934V8.00586H86.1426V6.69727H88.1934C88.1934 5.66211 88.304 4.77344 88.5254 4.03125C88.7467 3.28906 89.082 2.68034 89.5312 2.20508C89.9805 1.72331 90.5436 1.37174 91.2207 1.15039C91.9043 0.922526 92.7018 0.808594 93.6133 0.808594C94.1602 0.808594 94.6484 0.847656 95.0781 0.925781C95.5143 0.997396 95.8984 1.09505 96.2305 1.21875C96.569 1.33594 96.8652 1.4694 97.1191 1.61914C97.373 1.76888 97.5977 1.91862 97.793 2.06836Z" fill="#2A2A2A"/>
<path d="M101.25 17.9863H97.9395V8.01562H95.8887V6.70703H97.9395V2.55664H101.25V6.70703H104.668V8.01562H101.25V17.9863Z" fill="#2A2A2A"/>
</svg>
