<svg width="105" height="23" viewBox="0 0 105 23" fill="none" xmlns="http://www.w3.org/2000/svg">
<path d="M13.5547 10.5879V10.7734C13.5417 11.3203 13.4831 11.8867 13.3789 12.4727C13.2812 13.0586 13.1413 13.6445 12.959 14.2305C12.7767 14.8164 12.5586 15.3958 12.3047 15.9688C12.0508 16.5417 11.7643 17.0885 11.4453 17.6094C11.1328 18.1367 10.7943 18.6283 10.4297 19.084C10.0651 19.5462 9.68099 19.9531 9.27734 20.3047L7.82227 19.4648C8.05013 19.0807 8.25521 18.6608 8.4375 18.2051C8.6263 17.7559 8.79557 17.2839 8.94531 16.7891C9.09505 16.2943 9.222 15.7865 9.32617 15.2656C9.43685 14.7448 9.528 14.2272 9.59961 13.7129C9.67122 13.1986 9.72331 12.694 9.75586 12.1992C9.79492 11.6979 9.81445 11.2227 9.81445 10.7734C9.81445 10.4219 9.8112 10.0247 9.80469 9.58203C9.80469 9.13281 9.77865 8.67708 9.72656 8.21484C9.68099 7.7526 9.60286 7.30339 9.49219 6.86719C9.38151 6.42448 9.2155 6.0306 8.99414 5.68555C8.7793 5.34049 8.49935 5.0638 8.1543 4.85547C7.81576 4.64714 7.39258 4.54297 6.88477 4.54297C6.43555 4.54297 6.04818 4.62109 5.72266 4.77734C5.40365 4.92708 5.13021 5.13216 4.90234 5.39258C4.68099 5.64648 4.50195 5.94271 4.36523 6.28125C4.23503 6.61979 4.13086 6.97786 4.05273 7.35547C3.98112 7.72656 3.93229 8.10417 3.90625 8.48828C3.88672 8.86589 3.87695 9.22396 3.87695 9.5625V12.2871H8.08594V13.8984H3.87695V17.3164H0V10.168C0 9.14583 0.16276 8.19531 0.488281 7.31641C0.813802 6.4375 1.27279 5.67578 1.86523 5.03125C2.46419 4.38021 3.18034 3.8724 4.01367 3.50781C4.85352 3.13672 5.78776 2.95117 6.81641 2.95117C7.51302 2.95117 8.16406 3.05208 8.76953 3.25391C9.38151 3.44922 9.93815 3.72266 10.4395 4.07422C10.9408 4.41927 11.3867 4.83268 11.7773 5.31445C12.1745 5.78971 12.5033 6.31055 12.7637 6.87695C13.0306 7.44336 13.2324 8.04232 13.3691 8.67383C13.5059 9.30534 13.5677 9.94336 13.5547 10.5879Z" fill="white"/>
<path d="M28.8574 6.74023L27.1875 7.44336C27.0573 7.02018 26.8815 6.63281 26.6602 6.28125C26.4453 5.92969 26.1849 5.63021 25.8789 5.38281C25.5794 5.12891 25.2376 4.93359 24.8535 4.79688C24.4694 4.65365 24.0495 4.58203 23.5938 4.58203C23.1055 4.58203 22.6562 4.66341 22.2461 4.82617C21.8424 4.98893 21.4779 5.21029 21.1523 5.49023C20.8333 5.76367 20.5534 6.08594 20.3125 6.45703C20.0716 6.82812 19.8698 7.22526 19.707 7.64844C19.5508 8.0651 19.4303 8.49805 19.3457 8.94727C19.2676 9.39648 19.2285 9.83594 19.2285 10.2656C19.2285 10.9492 19.3066 11.6296 19.4629 12.3066C19.6257 12.9837 19.8796 13.5924 20.2246 14.1328C20.5762 14.6732 21.0286 15.1126 21.582 15.4512C22.1354 15.7832 22.806 15.9492 23.5938 15.9492C24.0234 15.9492 24.3587 15.8548 24.5996 15.666C24.8405 15.4707 24.9609 15.1322 24.9609 14.6504V10.334H28.8379V17.3164H27.7148L27.0312 16.2129C26.4062 16.6882 25.7161 17.0397 24.9609 17.2676C24.2122 17.4889 23.4473 17.5996 22.666 17.5996C21.9759 17.5996 21.3118 17.515 20.6738 17.3457C20.0423 17.1764 19.4531 16.9355 18.9062 16.623C18.3594 16.3105 17.8613 15.9329 17.4121 15.4902C16.9694 15.0475 16.5885 14.556 16.2695 14.0156C15.957 13.4753 15.7129 12.8893 15.5371 12.2578C15.3678 11.6198 15.2832 10.9557 15.2832 10.2656C15.2832 9.57552 15.3678 8.91471 15.5371 8.2832C15.7129 7.64518 15.957 7.05599 16.2695 6.51562C16.5885 5.96875 16.9694 5.47396 17.4121 5.03125C17.8613 4.58854 18.3594 4.21094 18.9062 3.89844C19.4531 3.58594 20.0423 3.34505 20.6738 3.17578C21.3118 3.00651 21.9759 2.92188 22.666 2.92188C23.3301 2.92188 23.9779 3 24.6094 3.15625C25.2474 3.3125 25.8398 3.55013 26.3867 3.86914C26.9336 4.18164 27.4186 4.57878 27.8418 5.06055C28.2715 5.53581 28.61 6.0957 28.8574 6.74023Z" fill="white"/>
<path d="M37.9395 11.1738H31.377V9.37695H37.9395V11.1738Z" fill="white"/>
<path d="M53.7012 13.498C53.7012 13.8952 53.6361 14.2663 53.5059 14.6113C53.3757 14.9564 53.1966 15.2721 52.9688 15.5586C52.7409 15.8385 52.474 16.0892 52.168 16.3105C51.8685 16.5319 51.543 16.7174 51.1914 16.8672C50.8464 17.0169 50.4883 17.1309 50.1172 17.209C49.7461 17.2806 49.3815 17.3164 49.0234 17.3164H40.752V3.25391H48.3105C48.6426 3.25391 48.9909 3.27995 49.3555 3.33203C49.7201 3.3776 50.0749 3.45247 50.4199 3.55664C50.7715 3.66081 51.1035 3.79753 51.416 3.9668C51.735 4.13607 52.0117 4.3444 52.2461 4.5918C52.487 4.83268 52.6758 5.11263 52.8125 5.43164C52.9557 5.75065 53.0273 6.11523 53.0273 6.52539C53.0273 6.91602 52.9492 7.27083 52.793 7.58984C52.6367 7.90885 52.4251 8.19531 52.1582 8.44922C51.8978 8.69661 51.5951 8.91797 51.25 9.11328C50.9115 9.30208 50.5534 9.4681 50.1758 9.61133C50.651 9.74154 51.1003 9.91406 51.5234 10.1289C51.9531 10.3438 52.3275 10.6074 52.6465 10.9199C52.972 11.2324 53.2292 11.6035 53.418 12.0332C53.6068 12.4564 53.7012 12.9447 53.7012 13.498ZM49.0918 6.86719C49.0918 6.07292 48.8802 5.49349 48.457 5.12891C48.0404 4.76432 47.4447 4.58203 46.6699 4.58203H44.6289V9.14258H46.3379C46.6895 9.14258 47.0312 9.10026 47.3633 9.01562C47.6953 8.92448 47.9883 8.78776 48.2422 8.60547C48.5026 8.41667 48.7077 8.17904 48.8574 7.89258C49.0137 7.60612 49.0918 7.26432 49.0918 6.86719ZM49.7754 13.2539C49.7754 12.8698 49.7266 12.5117 49.6289 12.1797C49.5312 11.8411 49.3815 11.5514 49.1797 11.3105C48.9779 11.0632 48.724 10.8711 48.418 10.7344C48.1185 10.5911 47.7637 10.5195 47.3535 10.5195H44.6289V15.9492H47.0117C47.4089 15.9492 47.7767 15.8841 48.1152 15.7539C48.4538 15.6237 48.7467 15.4414 48.9941 15.207C49.2415 14.9727 49.4336 14.6895 49.5703 14.3574C49.707 14.0254 49.7754 13.6576 49.7754 13.2539Z" fill="white"/>
<path d="M59.1797 3.3125C59.1797 3.5599 59.1309 3.79427 59.0332 4.01562C58.9421 4.23698 58.8151 4.42904 58.6523 4.5918C58.4896 4.75456 58.2975 4.88477 58.0762 4.98242C57.8613 5.07357 57.6302 5.11914 57.3828 5.11914C57.1354 5.11914 56.901 5.07357 56.6797 4.98242C56.4583 4.88477 56.2663 4.75456 56.1035 4.5918C55.9408 4.42904 55.8105 4.23698 55.7129 4.01562C55.6217 3.79427 55.5762 3.5599 55.5762 3.3125C55.5762 3.0651 55.6217 2.83398 55.7129 2.61914C55.8105 2.39779 55.9408 2.20573 56.1035 2.04297C56.2663 1.88021 56.4583 1.75326 56.6797 1.66211C56.901 1.56445 57.1354 1.51562 57.3828 1.51562C57.6302 1.51562 57.8613 1.56445 58.0762 1.66211C58.2975 1.75326 58.4896 1.88021 58.6523 2.04297C58.8151 2.20573 58.9421 2.39779 59.0332 2.61914C59.1309 2.83398 59.1797 3.0651 59.1797 3.3125ZM59.0332 14.0547C59.0332 14.8294 58.9355 15.6172 58.7402 16.418C58.5449 17.2122 58.2682 17.9805 57.9102 18.7227C57.5586 19.4714 57.1354 20.1712 56.6406 20.8223C56.1523 21.4798 55.612 22.0462 55.0195 22.5215L53.7305 21.7402C54.0625 21.2845 54.3522 20.7669 54.5996 20.1875C54.847 19.6146 55.0521 19.0189 55.2148 18.4004C55.3841 17.7819 55.5111 17.1602 55.5957 16.5352C55.6803 15.9036 55.7227 15.3047 55.7227 14.7383V6.03711H59.0332V14.0547Z" fill="white"/>
<path d="M71.4551 13.7129C71.4551 14.2077 71.3835 14.6471 71.2402 15.0312C71.097 15.4154 70.9017 15.7507 70.6543 16.0371C70.4069 16.3171 70.1139 16.5547 69.7754 16.75C69.4369 16.9388 69.0723 17.0918 68.6816 17.209C68.2975 17.3262 67.8939 17.4108 67.4707 17.4629C67.0475 17.515 66.6276 17.541 66.2109 17.541C65.651 17.541 65.1562 17.5052 64.7266 17.4336C64.2969 17.362 63.8867 17.248 63.4961 17.0918C63.1055 16.929 62.7148 16.7207 62.3242 16.4668C61.9401 16.2129 61.5104 15.9036 61.0352 15.5391L62.959 13.9668C63.1348 14.2988 63.3659 14.6016 63.6523 14.875C63.9453 15.1419 64.248 15.373 64.5605 15.5684C64.873 15.7637 65.1758 15.9134 65.4688 16.0176C65.7617 16.1217 65.9994 16.1738 66.1816 16.1738C66.3314 16.1738 66.5006 16.1706 66.6895 16.1641C66.8783 16.151 67.0703 16.1315 67.2656 16.1055C67.4609 16.0729 67.653 16.0273 67.8418 15.9688C68.0306 15.9102 68.1966 15.832 68.3398 15.7344C68.4896 15.6302 68.6068 15.5033 68.6914 15.3535C68.7826 15.1973 68.8281 15.0117 68.8281 14.7969C68.8281 14.5755 68.7695 14.3835 68.6523 14.2207C68.5417 14.0514 68.3952 13.9049 68.2129 13.7812C68.0306 13.6576 67.8223 13.5534 67.5879 13.4688C67.3535 13.3841 67.1159 13.3092 66.875 13.2441C66.6406 13.179 66.4128 13.1237 66.1914 13.0781C65.9701 13.026 65.778 12.9772 65.6152 12.9316C65.3158 12.847 65 12.7624 64.668 12.6777C64.3359 12.5866 64.0072 12.4857 63.6816 12.375C63.3561 12.2578 63.0436 12.1211 62.7441 11.9648C62.4512 11.8086 62.1908 11.623 61.9629 11.4082C61.7415 11.1868 61.5625 10.9297 61.4258 10.6367C61.2956 10.3372 61.2305 9.98893 61.2305 9.5918C61.2305 8.86263 61.3737 8.25391 61.6602 7.76562C61.9531 7.27083 62.3372 6.87695 62.8125 6.58398C63.2878 6.28451 63.8281 6.07292 64.4336 5.94922C65.0391 5.82552 65.6543 5.76367 66.2793 5.76367C66.709 5.76367 67.1615 5.80924 67.6367 5.90039C68.112 5.98503 68.5742 6.11523 69.0234 6.29102C69.4727 6.46029 69.8926 6.66862 70.2832 6.91602C70.6738 7.16341 70.9994 7.44661 71.2598 7.76562L69.3359 9.34766C69.1927 8.95703 69.0039 8.62175 68.7695 8.3418C68.5417 8.06185 68.291 7.83398 68.0176 7.6582C67.7506 7.47591 67.474 7.34245 67.1875 7.25781C66.9076 7.17318 66.6471 7.13086 66.4062 7.13086C66.1719 7.13086 65.9082 7.14062 65.6152 7.16016C65.3223 7.17969 65.0456 7.23503 64.7852 7.32617C64.5312 7.41732 64.3131 7.55729 64.1309 7.74609C63.9551 7.92839 63.8672 8.18229 63.8672 8.50781C63.8672 8.74219 63.9193 8.94401 64.0234 9.11328C64.1341 9.27604 64.2773 9.41927 64.4531 9.54297C64.6289 9.66016 64.8275 9.76107 65.0488 9.8457C65.2767 9.92383 65.5078 9.99544 65.7422 10.0605C65.9766 10.1191 66.2044 10.1712 66.4258 10.2168C66.6471 10.2624 66.8457 10.3112 67.0215 10.3633C67.321 10.4479 67.6367 10.5358 67.9688 10.627C68.3073 10.7116 68.6393 10.8125 68.9648 10.9297C69.2904 11.0404 69.6029 11.1738 69.9023 11.3301C70.2083 11.4798 70.4753 11.6654 70.7031 11.8867C70.931 12.1081 71.1133 12.3685 71.25 12.668C71.3867 12.9609 71.4551 13.3092 71.4551 13.7129Z" fill="white"/>
<path d="M85.459 11.6523C85.459 12.2383 85.3809 12.7884 85.2246 13.3027C85.0684 13.8171 84.8503 14.2923 84.5703 14.7285C84.2969 15.1647 83.9648 15.5586 83.5742 15.9102C83.1836 16.2552 82.7539 16.5482 82.2852 16.7891C81.8229 17.0299 81.3249 17.2155 80.791 17.3457C80.2637 17.4759 79.7201 17.541 79.1602 17.541C78.6003 17.541 78.0566 17.4759 77.5293 17.3457C77.002 17.2155 76.5039 17.0299 76.0352 16.7891C75.5729 16.5482 75.1465 16.2552 74.7559 15.9102C74.3652 15.5586 74.0299 15.1647 73.75 14.7285C73.4766 14.2923 73.2617 13.8171 73.1055 13.3027C72.9492 12.7819 72.8711 12.2318 72.8711 11.6523C72.8711 11.0729 72.9492 10.526 73.1055 10.0117C73.2617 9.49089 73.4766 9.01237 73.75 8.57617C74.0299 8.13997 74.3652 7.74935 74.7559 7.4043C75.1465 7.05273 75.5729 6.75651 76.0352 6.51562C76.5039 6.27474 77.002 6.08919 77.5293 5.95898C78.0566 5.82878 78.6003 5.76367 79.1602 5.76367C79.7201 5.76367 80.2637 5.82878 80.791 5.95898C81.3249 6.08919 81.8229 6.27474 82.2852 6.51562C82.7539 6.75651 83.1836 7.05273 83.5742 7.4043C83.9648 7.74935 84.2969 8.13997 84.5703 8.57617C84.8503 9.01237 85.0684 9.49089 85.2246 10.0117C85.3809 10.526 85.459 11.0729 85.459 11.6523ZM82.0996 11.6523C82.0996 11.3398 82.0801 11.0111 82.041 10.666C82.0085 10.3145 81.9499 9.97266 81.8652 9.64062C81.7806 9.30208 81.6634 8.97982 81.5137 8.67383C81.3704 8.36133 81.1914 8.09115 80.9766 7.86328C80.7617 7.62891 80.5046 7.44336 80.2051 7.30664C79.9056 7.16341 79.5573 7.0918 79.1602 7.0918C78.7826 7.0918 78.4473 7.16341 78.1543 7.30664C77.8613 7.44987 77.6042 7.64193 77.3828 7.88281C77.168 8.11719 76.9857 8.39062 76.8359 8.70312C76.6927 9.01562 76.5755 9.34115 76.4844 9.67969C76.3932 10.0117 76.3281 10.3503 76.2891 10.6953C76.25 11.0339 76.2305 11.3529 76.2305 11.6523C76.2305 11.9518 76.25 12.2741 76.2891 12.6191C76.3281 12.9577 76.3932 13.2962 76.4844 13.6348C76.5755 13.9733 76.6927 14.2988 76.8359 14.6113C76.9857 14.9173 77.168 15.1908 77.3828 15.4316C77.6042 15.666 77.8613 15.8548 78.1543 15.998C78.4473 16.1413 78.7826 16.2129 79.1602 16.2129C79.5508 16.2129 79.8958 16.1445 80.1953 16.0078C80.4948 15.8646 80.752 15.6758 80.9668 15.4414C81.1881 15.207 81.3704 14.9368 81.5137 14.6309C81.6569 14.3249 81.7708 14.0026 81.8555 13.6641C81.9466 13.3255 82.0085 12.9837 82.041 12.6387C82.0801 12.2936 82.0996 11.9648 82.0996 11.6523Z" fill="white"/>
<path d="M97.793 1.39844L95.9277 4.48438C95.9082 4.23698 95.8626 3.95378 95.791 3.63477C95.7194 3.30924 95.599 3.00326 95.4297 2.7168C95.2669 2.43034 95.0391 2.18945 94.7461 1.99414C94.4596 1.79232 94.0918 1.69141 93.6426 1.69141C93.1803 1.69141 92.8092 1.78255 92.5293 1.96484C92.2494 2.14714 92.0345 2.42057 91.8848 2.78516C91.735 3.14974 91.6341 3.60221 91.582 4.14258C91.5299 4.68294 91.5039 5.3112 91.5039 6.02734H94.9219V7.33594H91.5039V17.3164H88.1934V7.33594H86.1426V6.02734H88.1934C88.1934 4.99219 88.304 4.10352 88.5254 3.36133C88.7467 2.61914 89.082 2.01042 89.5312 1.53516C89.9805 1.05339 90.5436 0.701823 91.2207 0.480469C91.9043 0.252604 92.7018 0.138672 93.6133 0.138672C94.1602 0.138672 94.6484 0.177734 95.0781 0.255859C95.5143 0.327474 95.8984 0.42513 96.2305 0.548828C96.569 0.666016 96.8652 0.799479 97.1191 0.949219C97.373 1.09896 97.5977 1.2487 97.793 1.39844Z" fill="white"/>
<path d="M101.25 17.3164H97.9395V7.3457H95.8887V6.03711H97.9395V1.88672H101.25V6.03711H104.668V7.3457H101.25V17.3164Z" fill="white"/>
</svg>
